<svg viewBox="0 0 96 96" xmlns="http://www.w3.org/2000/svg" xmlns:xlink="http://www.w3.org/1999/xlink" id="Icons_BubbleTea" overflow="hidden"><style>
.MsftOfcThm_Accent2_Fill_v2 {
 fill:#FFB85F; 
}
</style>
<path d="M70 29 52.638 29 54.793 6.37C54.8974 5.27112 54.0918 4.29544 52.993 4.19L49.011 3.81C47.9118 3.70502 46.9354 4.51079 46.83 5.61L44.6 29 26 29 25.4 29.061C23.7801 29.4091 22.7492 31.0045 23.0973 32.6244 23.3857 33.9664 24.5482 34.9415 25.92 34.992L30.92 92 65.081 92 70.081 34.992C71.7367 34.9311 73.0296 33.5394 72.9686 31.8837 72.9181 30.5119 71.943 29.3494 70.601 29.061ZM31.941 35 44.029 35 42.886 47 32.994 47ZM39 86C37.3431 86 36 84.6569 36 83 36 81.3431 37.3431 80 39 80 40.6569 80 42 81.3431 42 83 42 84.6569 40.6569 86 39 86ZM40.5 75C40.5 73.3431 41.8431 72 43.5 72 45.1569 72 46.5 73.3431 46.5 75 46.5 76.6569 45.1569 78 43.5 78 41.8431 78 40.5 76.6569 40.5 75ZM48 86C46.3431 86 45 84.6569 45 83 45 81.3431 46.3431 80 48 80 49.6569 80 51 81.3431 51 83 51 84.6569 49.6569 86 48 86ZM49.5 75C49.5 73.3431 50.8431 72 52.5 72 54.1569 72 55.5 73.3431 55.5 75 55.5 76.6569 54.1569 78 52.5 78 50.8431 78 49.5 76.6569 49.5 75ZM57 86C55.3431 86 54 84.6569 54 83 54 81.3431 55.3431 80 57 80 58.6569 80 60 81.3431 60 83 60 84.6569 58.6569 86 57 86ZM63.006 47 50.923 47 52.066 35 64.059 35Z" class="MsftOfcThm_Accent2_Fill_v2" stroke="none" stroke-width="1" stroke-linecap="butt" stroke-linejoin="miter" stroke-miterlimit="4" fill="#FFB85F" fill-opacity="1"/></svg>