<svg viewBox="0 0 96 96" xmlns="http://www.w3.org/2000/svg" xmlns:xlink="http://www.w3.org/1999/xlink" id="Icons_ChickenLeg" overflow="hidden"><style>
.MsftOfcThm_Accent2_Fill_v2 {
 fill:#FFB85F; 
}
</style>
<path d="M82.39 13.61C73.5734 4.80059 59.2866 4.80059 50.47 13.61 45.21 18.87 43.1 33.61 40.03 39.16 34.79 48.69 29.78 50.38 31.03 54.16L24.56 60.64C24.38 60.43 24.19 60.22 24 60.03 19.9186 55.9338 13.2894 55.9218 9.19321 60.0032 5.09703 64.0846 5.08505 70.7139 9.16644 74.81 11.1351 76.7858 13.8108 77.8945 16.6 77.89 17.1456 77.8905 17.6904 77.8504 18.23 77.77 18.1496 78.3096 18.1095 78.8544 18.11 79.4 18.0921 85.1769 22.7606 89.8745 28.5375 89.8924 34.3144 89.9103 39.012 85.2418 39.0299 79.4649 39.0386 76.6617 37.9218 73.9724 35.93 72 35.73 71.81 35.53 71.62 35.32 71.45L41.8 65C45.67 66.22 47.3 61.08 56.96 56.07 62.64 53.12 77.13 50.77 82.39 45.52 91.1928 36.7046 91.1928 22.4254 82.39 13.61ZM30.74 70.41C29.9582 71.1903 29.9569 72.4566 30.7371 73.2384 30.8978 73.3994 31.0848 73.5319 31.29 73.63 31.9593 73.9376 32.5714 74.3569 33.1 74.87 35.6216 77.3939 35.6198 81.4842 33.0958 84.0058 30.5719 86.5274 26.4816 86.5256 23.96 84.0016 21.44 81.4793 21.44 77.3923 23.96 74.87 24.7525 74.0885 24.7615 72.8125 23.98 72.02 23.1985 71.2275 21.9225 71.2185 21.13 72 18.4467 74.3513 14.3653 74.0821 12.014 71.3988 9.88415 68.9681 9.87817 65.3376 12 62.9 14.5278 60.3854 18.6122 60.3854 21.14 62.9 21.6518 63.4275 22.068 64.0399 22.37 64.71 22.839 65.7101 24.0299 66.1406 25.03 65.6716 25.242 65.5721 25.435 65.4362 25.6 65.27L33.2 57.67C33.87 58.45 34.69 59.33 35.7 60.33 36.71 61.33 37.57 62.15 38.35 62.82Z" class="MsftOfcThm_Accent2_Fill_v2" stroke="none" stroke-width="1" stroke-linecap="butt" stroke-linejoin="miter" stroke-miterlimit="4" fill="#FFB85F" fill-opacity="1"/></svg>