<svg viewBox="0 0 96 96" xmlns="http://www.w3.org/2000/svg" xmlns:xlink="http://www.w3.org/1999/xlink" id="Icons_Plant" overflow="hidden"><style>
.MsftOfcThm_Accent2_Fill_v2 {
 fill:#FFB85F; 
}
</style>
<path d="M64.7 81.1C62 78.6 58.4 77 54.5 77 54 77 53.5 77 53 77.1 53.3 72.1 52.5 67 51.5 61.7 51.8 61.1 52.5 60.4 53.4 59.8 55.1 63.4 58.7 66 63 66 64.9 66 66.7 65.5 68.2 64.6L68.2 64.6C76.3 60.2 77.3 51.9 77.3 42.7 77.3 42.7 68.6 45.1 63.1 44.9 57.3 44.9 52.6 49.6 52.6 55.4 52.6 55.5 52.6 55.5 52.6 55.6 52 55.9 51.4 56.3 50.8 56.8 49.6 49.4 48.9 41.8 51.3 33.5 52.3 33.1 53.5 32.8 54.6 32.7 54.7 34.1 55.4 35.4 56.6 36.3 57.4 36.9 58.2 37.2 59.1 37.3L59.1 37.3C63.6 38 66.5 35 69.3 31.3 69.3 31.3 65.1 29.6 62.9 27.9 60.7 26.2 57.7 26.6 55.9 28.5 54.9 28.5 53.8 28.6 52.8 28.8 54 26 55.6 23.1 57.6 20.1 58 20.2 58.3 20.2 58.7 20.2 61.6 20.2 63.9 17.8 63.9 15 63.9 12.4 65.1 8 65.1 8 60.5 8 56.4 8.5 54.2 12.5L54.2 12.5C53.8 13.3 53.5 14.2 53.5 15.1 53.5 16.2 53.8 17.1 54.4 18 53.2 19.8 52.1 21.6 51.1 23.4 50.7 22.9 50.3 22.5 49.8 22 49.8 21.8 49.9 21.6 49.9 21.4 49.9 18.5 47.5 16.2 44.7 16.2 41.9 16.3 37.6 15.1 37.6 15.1 37.6 19.7 38.1 23.8 42.1 26L42.1 26C42.9 26.4 43.8 26.7 44.7 26.7 45.9 26.7 46.9 26.3 47.8 25.7 48.4 26.3 48.8 26.9 49.2 27.6 46 35 45.3 42 45.7 48.6 45.6 48.5 45.5 48.5 45.3 48.4 44.6 48.1 44 47.7 43.3 47.4 43.4 46.8 43.4 46.3 43.4 45.7 43.4 39.9 38.7 35.2 32.9 35.2 27.5 35.4 18.8 33 18.8 33 18.8 42.2 19.8 50.4 27.9 54.9L27.9 54.9C29.4 55.8 31.2 56.3 33.1 56.3 36.9 56.3 40.2 54.3 42.1 51.3 42.6 51.6 43.2 51.8 43.7 52.1 44.5 52.5 45.4 52.9 46.3 53.3 46.7 56.2 47.2 59.1 47.6 61.8 48.6 67.5 49.6 73 49 78.1 47.1 78.9 45.4 80 43.9 81.4 42 80.5 39.8 80 37.5 80 31.7 80 26.8 83.2 24.2 88L76.1 88C73.7 84.1 69.6 81.5 64.7 81.1Z" class="MsftOfcThm_Accent2_Fill_v2" stroke="none" stroke-width="1" stroke-linecap="butt" stroke-linejoin="miter" stroke-miterlimit="4" fill="#FFB85F" fill-opacity="1"/></svg>