<svg viewBox="0 0 96 96" xmlns="http://www.w3.org/2000/svg" xmlns:xlink="http://www.w3.org/1999/xlink" id="Icons_ChiliPepper" overflow="hidden"><style>
.MsftOfcThm_Background1_Fill_v2 {
 fill:#FFFFFF; 
}
</style>
<path d="M81.249 30.113 80.368 30.445C77.9507 31.3544 75.2602 31.1885 72.973 29.989L72.858 29.929C72.4199 29.6983 71.9322 29.5775 71.437 29.577 71.358 29.577 71.278 29.577 71.198 29.586L70.62 29.631C70.385 29.649 70.148 29.659 69.912 29.659 68.1738 29.6597 66.4724 29.1587 65.012 28.216L64 27.568C61.2782 28.4358 59.5214 31.0741 59.77 33.92 59.753 40.47 56.504 54.258 47.706 61.382 37.48 69.663 27.195 68.801 21.545 70.382 15.779 72 11.931 74.541 10.1 79.45 8.82342 82.5901 9.69861 86.1948 12.273 88.4 12.6842 88.7883 13.3323 88.7697 13.7206 88.3585 13.8985 88.17 13.9983 87.9212 14 87.662 14.021 86.081 14.338 83.997 15.679 82.775 18.195 80.483 22.579 80.275 28.823 80.391 39.3 80.58 46.546 81.113 56.856 77.259 70.156 72.288 79.49 60.342 82.543 46.388 83.4901 42.0664 83.75 37.6225 83.313 33.22 83.176 31.9086 82.4048 30.7476 81.249 30.113Z" class="MsftOfcThm_Background1_Fill_v2" stroke="none" stroke-width="1" stroke-linecap="butt" stroke-linejoin="miter" stroke-miterlimit="4" fill="#FFFFFF" fill-opacity="1"/><path d="M65.468 24.942 66.637 25.695C67.7495 26.412 69.0666 26.744 70.386 26.64L70.963 26.595C72.0993 26.5057 73.2377 26.7393 74.247 27.269L74.367 27.332C75.8962 28.1334 77.6951 28.2426 79.31 27.632L80.271 27.27C80.4725 27.1948 80.5804 26.9755 80.517 26.77L79.9 24.7C79.6337 23.8042 79.1773 22.9764 78.562 22.273 78.1049 21.8336 77.7084 21.3352 77.383 20.791 77.2771 20.5519 77.2021 20.3001 77.16 20.042 77.004 17.747 78.284 13.477 79.681 11.924 80.2887 11.2434 81.149 10.8418 82.061 10.813 82.3532 10.8358 82.6288 10.9579 82.842 11.159 83.1718 11.4422 83.6484 11.4751 84.014 11.24L85.755 10.145C86.2214 9.85866 86.3674 9.24842 86.0811 8.78198 86.0559 8.741 86.0278 8.7019 85.997 8.665 85.0865 7.60261 83.7943 6.94157 82.4 6.825 80.2337 6.74092 78.1432 7.62922 76.7 9.247 74.9746 11.4807 73.8505 14.1193 73.435 16.911 73.2957 17.6112 72.9675 18.2599 72.486 18.787 71.7235 19.6068 70.7288 20.1742 69.635 20.413 68.5379 20.6773 67.5693 21.3204 66.9 22.229L65.355 24.361C65.224 24.5437 65.2659 24.7979 65.4486 24.9289 65.4549 24.9335 65.4614 24.9378 65.468 24.942Z" class="MsftOfcThm_Background1_Fill_v2" stroke="none" stroke-width="1" stroke-linecap="butt" stroke-linejoin="miter" stroke-miterlimit="4" fill="#FFFFFF" fill-opacity="1"/></svg>