<svg viewBox="0 0 96 96" xmlns="http://www.w3.org/2000/svg" xmlns:xlink="http://www.w3.org/1999/xlink" id="Icons_AlterationsTailoring1" overflow="hidden"><style>
.MsftOfcThm_Background1_Fill_v2 {
 fill:#FFFFFF; 
}
</style>
<path d="M81.1 14C78.8 11.7 75 11.6 72.6 14 71.1 15.5 70.5 17.7 71 19.8L60.2 30.7C59.5 30.2 58.9 29.7 58.2 29.3L64.1 15C67.4 14.6 69.7 11.6 69.3 8.3 68.9 5 65.9 2.7 62.6 3.1 59.3 3.5 57 6.5 57.4 9.8 57.5 10.8 57.9 11.8 58.6 12.7L52.9 26.5C38.4 21.2 22.3 28.7 17 43.2 13.7 52.2 15.3 62.2 21.1 69.8L16.9 74 13.4 81.8 21.2 78.3 25.3 74.2C27.2 75.8 29.3 77.2 31.6 78.2L29.4 83.6 29.1 92.1 34.9 85.9 37.3 80.1C52.4 83.5 67.4 74 70.7 58.9 72.6 50.3 70.4 41.3 64.7 34.7L75.4 24C78.6 24.9 81.9 23 82.7 19.8 83.3 17.7 82.7 15.5 81.1 14ZM63.6 64.8C61.1 54.2 55 44.8 46.3 38.3 44.7 40.9 43.4 43.7 42.4 46.6 49.4 53.2 54.3 61.7 56.5 71.1 56.6 71.6 56.7 72.1 56.8 72.6 55.6 73.4 54.4 74.1 53.1 74.7 52.9 73.8 52.8 72.9 52.6 72 50.7 64 46.8 56.8 41.1 50.9 41 51.3 40.9 51.7 40.8 52.1 39 60.3 39.5 68.9 42.3 76.9 40.8 76.8 39.4 76.7 37.9 76.3 32.9 60 36.7 42.2 47.9 29.4 49.4 29.7 50.8 30.1 52.1 30.7 50.8 32.1 49.6 33.5 48.5 35 56.8 41.2 63 49.8 66.2 59.6 65.6 61.6 64.8 63.6 63.7 65.4 63.7 65.2 63.6 65 63.6 64.8ZM23.5 66.6C22.3 54.6 25 42.5 31.3 32.1 33.3 30.9 35.6 30.1 37.8 29.5 33.2 35.5 30 42.4 28.4 49.8 26.8 57 26.8 64.5 28.3 71.7 26.5 70.2 24.8 68.5 23.5 66.6Z" class="MsftOfcThm_Background1_Fill_v2" fill="#FFFFFF"/></svg>