<svg viewBox="0 0 96 96" xmlns="http://www.w3.org/2000/svg" xmlns:xlink="http://www.w3.org/1999/xlink" id="Icons_Football" overflow="hidden"><style>
.MsftOfcThm_Background1_Fill_v2 {
 fill:#FFFFFF; 
}
</style>
<g><path d="M17 32.5C12.3 36.1 8.5 39.8 6 42.7 3.4 45.7 3.4 50.2 6 53.3 8.5 56.2 12.3 59.9 17 63.5L17 32.5Z" class="MsftOfcThm_Background1_Fill_v2" stroke="none" stroke-width="1" stroke-linecap="butt" stroke-linejoin="miter" stroke-miterlimit="4" fill="#FFFFFF" fill-opacity="1"/><path d="M90 42.7C87.5 39.8 83.7 36.1 79 32.5L79 63.4C83.7 59.8 87.5 56.1 90 53.2 92.7 50.2 92.7 45.8 90 42.7Z" class="MsftOfcThm_Background1_Fill_v2" stroke="none" stroke-width="1" stroke-linecap="butt" stroke-linejoin="miter" stroke-miterlimit="4" fill="#FFFFFF" fill-opacity="1"/><path d="M48 20C39.2 20 30.4 23.7 23 28.4L23 67.7C30.4 72.4 39.2 76.1 48 76.1 56.8 76.1 65.6 72.4 73 67.7L73 28.4C65.6 23.7 56.8 20 48 20ZM66 53C66 54.1 65.1 55 64 55 62.9 55 62 54.1 62 53L62 50 58 50 58 53C58 54.1 57.1 55 56 55 54.9 55 54 54.1 54 53L54 50 50 50 50 53C50 54.1 49.1 55 48 55 46.9 55 46 54.1 46 53L46 50 42 50 42 53C42 54.1 41.1 55 40 55 38.9 55 38 54.1 38 53L38 50 34 50 34 53C34 54.1 33.1 55 32 55 30.9 55 30 54.1 30 53L30 43C30 41.9 30.9 41 32 41 33.1 41 34 41.9 34 43L34 46 38 46 38 43C38 41.9 38.9 41 40 41 41.1 41 42 41.9 42 43L42 46 46 46 46 43C46 41.9 46.9 41 48 41 49.1 41 50 41.9 50 43L50 46 54 46 54 43C54 41.9 54.9 41 56 41 57.1 41 58 41.9 58 43L58 46 62 46 62 43C62 41.9 62.9 41 64 41 65.1 41 66 41.9 66 43L66 53Z" class="MsftOfcThm_Background1_Fill_v2" stroke="none" stroke-width="1" stroke-linecap="butt" stroke-linejoin="miter" stroke-miterlimit="4" fill="#FFFFFF" fill-opacity="1"/></g></svg>