<svg viewBox="0 0 96 96" xmlns="http://www.w3.org/2000/svg" xmlns:xlink="http://www.w3.org/1999/xlink" id="Icons_Kitten" overflow="hidden"><style>
.MsftOfcThm_Background1_Fill_v2 {
 fill:#FFFFFF; 
}
</style>
<path d="M88.447 35.276 87.979 34.807C87.8302 34.6584 87.7529 34.4528 87.767 34.243L88.121 29.053C88.2258 27.5227 87.7178 26.0135 86.709 24.858L85.572 23.558 87.359 19.931C87.5518 19.5402 87.3912 19.0671 87.0004 18.8744 86.892 18.8209 86.7728 18.7931 86.652 18.793 86.4826 18.7943 86.3183 18.8508 86.184 18.954L81.677 22.317 81.677 17.577C81.6787 17.1506 81.3344 16.8036 80.9081 16.802 80.9044 16.8019 80.9007 16.802 80.897 16.802 80.6792 16.8017 80.4718 16.8954 80.328 17.059L77.171 20.565C76.8519 20.9183 76.4635 21.2022 76.03 21.399L73.95 22.34C71.3657 23.5094 69.2081 25.4521 67.775 27.9L63.4 35.383C62.6669 36.637 61.3838 37.4703 59.94 37.63L54.159 38.27C50.3576 38.7487 46.726 40.1305 43.568 42.3L40.284 44.557C37.4416 46.5125 35.0541 49.0576 33.284 52.019L30.284 57.038C29.1973 58.9388 27.5022 60.4183 25.472 61.238 22.6975 62.3009 19.7423 62.8121 16.772 62.743 14.3456 62.7263 11.9256 62.492 9.541 62.043 9.36394 62.013 9.18458 61.9986 9.005 62 7.34815 61.9981 6.00343 63.3396 6.0015 64.9965 5.9998 66.4485 7.03822 67.6933 8.467 67.952 11.2308 68.4687 14.0354 68.7364 16.847 68.752 20.8551 68.8424 24.8354 68.0649 28.515 66.473L28.801 66.316 28.801 75C28.801 76.6569 30.1441 78 31.801 78L34.801 78C36.4579 78 37.801 76.6569 37.801 75 37.801 73.3431 36.4579 72 34.801 72L34.801 71.719 39.801 71.719 39.801 75C39.801 76.6569 41.1441 78 42.801 78L54.801 78C56.4579 78 57.801 76.6569 57.801 75 57.801 73.3431 56.4579 72 54.801 72L45.801 72 45.801 71.714C49.341 71.6927 52.7798 70.5305 55.607 68.4L56.598 67.652C57.404 67.0429 58.2803 66.5329 59.208 66.133L62.908 64.538C64.4394 63.8816 66.035 63.3866 67.669 63.061L75.148 70.394C76.3476 71.5369 78.2465 71.491 79.3894 70.2914 80.5093 69.116 80.4909 67.263 79.348 66.11L72.764 59.654 73.382 58.377 83.728 62.33C85.2949 62.8684 87.0016 62.0346 87.5401 60.4677 88.0522 58.9771 87.3236 57.3443 85.872 56.73L76.135 53 77.3 50.919C78.008 49.6536 78.4568 48.2598 78.62 46.819L79.103 42.543C79.2048 41.6407 79.968 40.9589 80.876 40.959L83.15 40.959C84.2227 40.9591 85.2672 40.616 86.131 39.98L88.209 38.45C89.1421 37.7611 89.34 36.4463 88.6512 35.5133 88.5891 35.4292 88.5209 35.3499 88.447 35.276ZM76.041 42.914 66.209 36.523 67.725 33.931 77 39.958C76.5198 40.6183 76.2178 41.3911 76.123 42.202Z" class="MsftOfcThm_Background1_Fill_v2" stroke="none" stroke-width="1" stroke-linecap="butt" stroke-linejoin="miter" stroke-miterlimit="4" fill="#FFFFFF" fill-opacity="1"/></svg>