<svg viewBox="0 0 96 96" xmlns="http://www.w3.org/2000/svg" xmlns:xlink="http://www.w3.org/1999/xlink" id="Icons_MonsterTruck" overflow="hidden"><style>
.MsftOfcThm_Background1_Fill_v2 {
 fill:#FFFFFF; 
}
</style>
<g id="Icons"><path d="M90.294 62 90.294 62C89.8906 61.9975 89.5501 61.6995 89.494 61.3 89.429 60.893 89.349 60.491 89.257 60.093 89.1611 59.7015 89.3672 59.2989 89.741 59.148L89.748 59.148C90.161 58.9822 90.3628 58.5142 90.2 58.1L89.321 55.886C89.156 55.4711 88.686 55.2684 88.271 55.433L88.271 55.433C87.8993 55.5775 87.4778 55.4288 87.279 55.083 86.979 54.576 86.651 54.083 86.303 53.614 86.0601 53.2946 86.0895 52.845 86.372 52.56L86.381 52.551C86.6969 52.2351 86.6969 51.7229 86.381 51.407L84.7 49.723C84.3845 49.4074 83.8729 49.4072 83.5573 49.7227 83.5572 49.7228 83.5571 49.7229 83.557 49.723L83.549 49.731C83.2627 50.0129 82.8134 50.0431 82.492 49.802 82.1587 49.56 81.8197 49.3297 81.475 49.111 81.1316 48.9021 80.9936 48.4728 81.151 48.103L81.151 48.092C81.3278 47.6819 81.139 47.2061 80.729 47.029L78.542 46.084C78.1319 45.9072 77.6561 46.0961 77.479 46.506L77.479 46.506C77.3178 46.8716 76.9134 47.0642 76.528 46.959 75.9577 46.8113 75.3803 46.6928 74.798 46.604 74.3994 46.5507 74.1009 46.2121 74.098 45.81L74.098 45.81C74.0986 45.3648 73.7392 45.0028 73.294 45L70.911 45C70.4646 45.0006 70.103 45.3626 70.103 45.809L70.103 45.809C70.1009 46.2126 69.8027 46.5533 69.403 46.609 68.9963 46.6757 68.594 46.755 68.196 46.847 68.145 46.8546 68.0935 46.8573 68.042 46.855L66.104 39.747 75.98 39.747C78.0392 39.7476 79.7085 41.4168 79.709 43.476 79.709 43.9907 80.1263 44.408 80.641 44.408L87.167 44.408C88.1959 44.4086 89.0304 43.5749 89.031 42.546 89.031 42.5453 89.031 42.5447 89.031 42.544L89.031 40.678C89.0315 39.6485 88.1975 38.8136 87.168 38.813 87.1677 38.813 87.1673 38.813 87.167 38.813L87.167 37.933C87.1668 33.5562 84.1009 29.7777 79.818 28.876L69.818 26.771 65.543 18.935C64.5577 17.1247 62.661 15.9985 60.6 16L45.836 16C44.9682 15.9987 44.2178 16.6045 44.036 17.453L41.856 27.626 12.588 27.626C10.5288 27.6266 8.85955 29.2958 8.859 31.355L8.859 42.542C8.859 43.5715 9.69354 44.406 10.723 44.406 10.7233 44.406 10.7237 44.406 10.724 44.406L16.317 44.406 16.317 43.474C16.317 41.4145 17.9865 39.745 20.046 39.745L29.892 39.745 27.946 46.883C27.499 46.778 27.052 46.676 26.593 46.605 26.1948 46.5517 25.8964 46.2137 25.893 45.812L25.893 45.812C25.8947 45.366 25.535 45.0028 25.089 45L22.706 45C22.2592 45 21.897 45.3622 21.897 45.809L21.897 45.809C21.8957 46.2111 21.5999 46.5515 21.202 46.609 20.794 46.6757 20.3913 46.755 19.994 46.847 19.6024 46.9434 19.1996 46.7371 19.049 46.363L19.049 46.356C18.8847 45.9409 18.4156 45.737 18 45.9L15.786 46.779C15.3711 46.944 15.1684 47.414 15.333 47.829L15.333 47.829C15.4775 48.2007 15.3288 48.6222 14.983 48.821 14.4757 49.1217 13.986 49.447 13.514 49.797 13.1943 50.0391 12.7454 50.0097 12.46 49.728L12.451 49.719C12.1355 49.4034 11.6239 49.4032 11.3083 49.7187 11.3082 49.7188 11.3081 49.7189 11.308 49.719L9.62 51.407C9.30413 51.7229 9.30413 52.2351 9.62 52.551L9.628 52.559C9.91062 52.8448 9.94125 53.2945 9.7 53.616 9.458 53.946 9.228 54.286 9.009 54.633 8.80006 54.9769 8.3701 55.115 8 54.957L7.99 54.952C7.57965 54.7751 7.10354 54.9639 6.926 55.374L5.982 57.561C5.80467 57.97 5.9916 58.4453 6.4 58.624L6.4 58.624C6.76623 58.7845 6.95915 59.1895 6.853 59.575 6.70671 60.1438 6.58889 60.7195 6.5 61.3 6.44716 61.6984 6.10889 61.997 5.707 62L5.707 62C5.2602 62 4.898 62.3622 4.898 62.809L4.898 65.191C4.898 65.6374 5.25959 65.9995 5.706 66L5.706 66C6.10941 66.0025 6.44994 66.3005 6.506 66.7 6.571 67.107 6.651 67.509 6.743 67.907 6.83893 68.2985 6.63276 68.701 6.259 68.852L6.252 68.852C5.83901 69.0178 5.63718 69.4858 5.8 69.9L6.679 72.114C6.84402 72.5289 7.31396 72.7316 7.729 72.567L7.729 72.567C8.10072 72.4225 8.52224 72.5712 8.721 72.917 9.021 73.424 9.349 73.917 9.697 74.386 9.93949 74.7056 9.91008 75.1548 9.628 75.44L9.619 75.449C9.30313 75.7649 9.30313 76.2771 9.619 76.593L11.304 78.277C11.6195 78.5926 12.1311 78.5928 12.4467 78.2773 12.4468 78.2772 12.4469 78.2771 12.447 78.277L12.455 78.269C12.7413 77.9871 13.1906 77.9569 13.512 78.198 13.8453 78.44 14.1843 78.6703 14.529 78.889 14.8724 79.0979 15.0104 79.5272 14.853 79.897L14.853 79.908C14.6762 80.3181 14.865 80.7939 15.275 80.971L17.462 81.916C17.8721 82.0928 18.3479 81.904 18.525 81.494L18.525 81.494C18.6862 81.1284 19.0906 80.9358 19.476 81.041 20.0463 81.1887 20.6237 81.3072 21.206 81.396 21.6026 81.4516 21.8984 81.7896 21.901 82.19L21.901 82.19C21.901 82.6368 22.2632 82.999 22.71 82.999L25.093 82.999C25.5394 82.9985 25.901 82.6364 25.901 82.19L25.901 82.19C25.9031 81.7864 26.2013 81.4457 26.601 81.39 27.0077 81.3233 27.41 81.244 27.808 81.152 28.1996 81.0556 28.6024 81.2619 28.753 81.636L28.753 81.643C28.9181 82.0579 29.3877 82.2609 29.803 82.097L32.017 81.218C32.432 81.0541 32.6356 80.5847 32.4717 80.1697 32.4714 80.1691 32.4712 80.1686 32.471 80.168L32.471 80.168C32.3262 79.796 32.4755 79.3741 32.822 79.176 33.328 78.876 33.822 78.548 34.291 78.2 34.6106 77.9575 35.0598 77.9869 35.345 78.269L35.354 78.278C35.6695 78.5936 36.1811 78.5938 36.4967 78.2783 36.4968 78.2782 36.4969 78.2781 36.497 78.278L38.182 76.594C38.4979 76.2781 38.4979 75.7659 38.182 75.45L38.174 75.442C37.8913 75.1561 37.861 74.7061 38.103 74.385 38.3443 74.0517 38.5743 73.7127 38.793 73.368 39.0021 73.0249 39.4311 72.8871 39.801 73.044L39.812 73.044C40.2221 73.2208 40.6979 73.032 40.875 72.622L41.82 70.435C41.9968 70.0249 41.8079 69.5491 41.398 69.372 41.0317 69.2115 40.8384 68.8067 40.944 68.421 41.0916 67.8511 41.2101 67.274 41.299 66.692 41.3523 66.2934 41.6909 65.9949 42.093 65.992L42.093 65.992C42.5394 65.9914 42.901 65.6294 42.901 65.183L42.901 62.809C42.901 62.3622 42.5388 62 42.092 62 42.091 62 42.09 62 42.089 62L42.089 62C41.6853 61.9983 41.3443 61.6999 41.289 61.3 41.2223 60.8927 41.143 60.4903 41.051 60.093 40.9555 59.7015 41.1615 59.2993 41.535 59.148L41.543 59.148C41.9585 58.9851 42.1632 58.5163 42.0003 58.1008 42.0002 58.1005 42.0001 58.1003 42 58.1L41.121 55.886C40.956 55.4711 40.486 55.2684 40.071 55.433L40.071 55.433C39.6993 55.5775 39.2778 55.4288 39.079 55.083 38.7789 54.577 38.4532 54.0867 38.103 53.614 37.8608 53.2942 37.8906 52.845 38.173 52.56L38.182 52.551C38.4979 52.2351 38.4979 51.7229 38.182 51.407L36.49 49.723C36.1745 49.4074 35.6629 49.4072 35.3473 49.7227 35.3472 49.7228 35.3471 49.7229 35.347 49.723L35.339 49.731C35.0524 50.013 34.6027 50.0432 34.281 49.802 34.031 49.619 33.772 49.449 33.512 49.28L36.112 39.745 36.826 39.745C38.8855 39.745 40.555 41.4145 40.555 43.474L40.555 47.2C40.555 48.7464 41.8086 50 43.355 50L52.677 50C54.2234 50 55.477 48.7464 55.477 47.2L55.477 43.474C55.477 41.4169 57.1429 39.7483 59.2 39.745L59.888 39.745 62.488 49.287C62.23 49.458 61.963 49.618 61.714 49.801 61.3944 50.0435 60.9452 50.0141 60.66 49.732L60.651 49.723C60.3355 49.4074 59.8239 49.4072 59.5083 49.7227 59.5082 49.7228 59.5081 49.7229 59.508 49.723L57.823 51.407C57.5071 51.7229 57.5071 52.2351 57.823 52.551L57.831 52.559C58.1137 52.8449 58.144 53.2949 57.902 53.616 57.6607 53.9493 57.4307 54.2883 57.212 54.633 57.0029 54.976 56.5739 55.1139 56.204 54.957L56.193 54.952C55.7829 54.7752 55.3071 54.9641 55.13 55.374L54.185 57.561C54.0082 57.9711 54.1971 58.4469 54.607 58.624 54.9733 58.7845 55.1666 59.1893 55.061 59.575 54.9134 60.1449 54.7949 60.722 54.706 61.304 54.6527 61.7026 54.3141 62.0011 53.912 62.004L53.912 62.004C53.4656 62.0046 53.104 62.3666 53.104 62.813L53.104 65.195C53.104 65.6414 53.4656 66.0034 53.912 66.004L53.912 66.004C54.3157 66.0057 54.6567 66.3041 54.712 66.704 54.7787 67.1113 54.858 67.5137 54.95 67.911 55.0455 68.3025 54.8395 68.7047 54.466 68.856L54.458 68.856C54.044 69.0186 53.8393 69.4853 54 69.9L54.879 72.114C55.044 72.5289 55.514 72.7316 55.929 72.567L55.929 72.567C56.3007 72.4225 56.7222 72.5712 56.921 72.917 57.2211 73.423 57.5468 73.9133 57.897 74.386 58.1392 74.7058 58.1094 75.1551 57.827 75.44L57.818 75.449C57.5021 75.7649 57.5021 76.2771 57.818 76.593L59.503 78.277C59.8185 78.5926 60.3301 78.5928 60.6457 78.2773 60.6458 78.2772 60.6459 78.2771 60.646 78.277L60.654 78.269C60.9406 77.987 61.3903 77.9568 61.712 78.198 62.042 78.44 62.382 78.67 62.729 78.889 63.0755 79.0967 63.2165 79.5276 63.06 79.9L63.055 79.911C62.8782 80.3211 63.0671 80.7969 63.477 80.974L65.664 81.919C66.0741 82.0958 66.5499 81.907 66.727 81.497L66.727 81.497C66.8878 81.1311 67.2925 80.9383 67.678 81.044 68.248 81.1912 68.8251 81.3097 69.407 81.399 69.8052 81.4523 70.1036 81.7903 70.107 82.192L70.107 82.192C70.107 82.6384 70.4686 83.0005 70.915 83.001L73.298 83.001C73.7448 83.001 74.107 82.6388 74.107 82.192L74.107 82.192C74.1087 81.7883 74.4071 81.4473 74.807 81.392 75.215 81.3253 75.6177 81.246 76.015 81.154 76.4066 81.0576 76.8094 81.2639 76.96 81.638L76.96 81.645C77.1246 82.0548 77.5873 82.2572 78 82.1L80.214 81.221C80.6289 81.056 80.8316 80.586 80.667 80.171L80.667 80.171C80.5225 79.7993 80.6712 79.3778 81.017 79.179 81.5243 78.8783 82.014 78.553 82.486 78.203 82.8057 77.961 83.2546 77.9903 83.54 78.272L83.549 78.281C83.8645 78.5966 84.3761 78.5968 84.6917 78.2813 84.6918 78.2812 84.6919 78.2811 84.692 78.281L86.377 76.597C86.6929 76.2811 86.6929 75.7689 86.377 75.453L86.369 75.445C86.0867 75.1589 86.0565 74.7093 86.298 74.388 86.54 74.058 86.77 73.718 86.989 73.371 87.1968 73.0246 87.6284 72.8846 88 73.043L88.01 73.043C88.4204 73.2199 88.8965 73.0311 89.074 72.621L90.018 70.434C90.1948 70.0239 90.006 69.5481 89.596 69.371L89.596 69.371C89.2298 69.2105 89.0369 68.8055 89.143 68.42 89.2905 67.853 89.4096 67.2789 89.5 66.7 89.5528 66.3016 89.8911 66.003 90.293 66L90.293 66C90.7398 66 91.102 65.6378 91.102 65.191L91.102 62.809C91.102 62.3626 90.7404 62.0005 90.294 62ZM23.9 70.488C20.3168 70.4897 17.4107 67.5862 17.409 64.003 17.4073 60.4198 20.3108 57.5137 23.894 57.512 27.4772 57.5103 30.3833 60.4138 30.385 63.997 30.385 63.998 30.385 63.999 30.385 64 30.3784 67.5793 27.4793 70.4797 23.9 70.488ZM51.7 26.694 51.7 20 60.6 20C61.196 20.0003 61.7444 20.3258 62.03 20.849L65.218 26.693 51.7 26.693ZM72.1 70.488C68.5168 70.4863 65.6133 67.5802 65.615 63.997 65.6167 60.4138 68.5228 57.5103 72.106 57.512 75.688 57.5137 78.591 60.4179 78.591 64 78.5844 67.5816 75.6816 70.483 72.1 70.488Z" class="MsftOfcThm_Background1_Fill_v2" stroke="none" stroke-width="1" stroke-linecap="butt" stroke-linejoin="miter" stroke-miterlimit="4" fill="#FFFFFF" fill-opacity="1"/></g></svg>