<svg viewBox="0 0 96 96" xmlns="http://www.w3.org/2000/svg" xmlns:xlink="http://www.w3.org/1999/xlink" id="Icons_Vacation1" overflow="hidden"><style>
.MsftOfcThm_Background1_Fill_v2 {
 fill:#FFFFFF; 
}
</style>
<path d="M51.986 59.543 54.469 65.543 59.743 65.543 79.121 46.164 77.707 44.75C76.1449 43.1879 73.6123 43.1878 72.0501 44.7499 72.0501 44.7499 72.05 44.75 72.05 44.75L57.257 59.543Z" class="MsftOfcThm_Background1_Fill_v2" stroke="none" stroke-width="1" stroke-linecap="butt" stroke-linejoin="miter" stroke-miterlimit="4" fill="#FFFFFF" fill-opacity="1"/><path d="M12 59.543C9.79086 59.543 8 61.3339 8 63.543L8 65.543 43.646 65.543 41.164 59.543Z" class="MsftOfcThm_Background1_Fill_v2" stroke="none" stroke-width="1" stroke-linecap="butt" stroke-linejoin="miter" stroke-miterlimit="4" fill="#FFFFFF" fill-opacity="1"/><path d="M91 69.043 87.826 69.043 77.981 61.166 83.092 56.193 78.908 51.893 61.281 69.043 55.917 69.043 58.817 76.043 78.217 76.043 82.007 85.043 86.007 85.043 84.491 76.043 91 76.043ZM75.092 63.977 81.424 69.043 69.886 69.043Z" class="MsftOfcThm_Background1_Fill_v2" stroke="none" stroke-width="1" stroke-linecap="butt" stroke-linejoin="miter" stroke-miterlimit="4" fill="#FFFFFF" fill-opacity="1"/><path d="M8 69.043 8 76.043 14.516 76.043 13 85.043 17 85.043 20.789 76.043 47.991 76.043 45.095 69.043 8 69.043Z" class="MsftOfcThm_Background1_Fill_v2" stroke="none" stroke-width="1" stroke-linecap="butt" stroke-linejoin="miter" stroke-miterlimit="4" fill="#FFFFFF" fill-opacity="1"/><path d="M12.927 47.377C15.651 46.235 18.214 45.929 19.792 46.484 20.502 44.969 22.592 43.384 25.241 42.212 27.965 41.07 30.527 40.764 32.105 41.319 32.8374 40.0928 33.8698 39.0731 35.105 38.356L55.646 88 61.058 88 39.682 36.347 39.965 36.228C41.4233 35.8003 42.9662 35.7483 44.45 36.077 45.161 34.562 47.25 32.977 49.899 31.805 52.623 30.662 55.186 30.356 56.764 30.912 57.474 29.397 59.564 27.812 62.212 26.64 64.3256 25.6406 66.6961 25.3175 69 25.715 62.193 11.464 45.35 4.753 29.641 9.613 28.6128 8.0982 26.5512 7.70377 25.0364 8.73202 23.9327 9.48124 23.3855 10.8191 23.648 12.127 9.173 19.928 2.152 36.649 7.51 51.572 8.3 50.088 10.312 48.474 12.927 47.377ZM60.621 21.926 60.403 22.017C58.2967 22.8756 56.3591 24.1006 54.68 25.635 49.152 18.408 41.912 13.82 35.1 13.473 44.4923 11.7481 54.1154 14.9355 60.621 21.926ZM27.061 16.141C27.5669 15.8745 28.0866 15.6352 28.618 15.424 29.163 15.195 29.676 15.044 30.218 14.816 33.248 16.236 37.823 22.261 42.332 30.877 40.0344 30.9636 37.7732 31.4777 35.664 32.393 33.5577 33.2517 31.6202 34.4767 29.941 36.011 27.007 26.863 25.841 19.344 27.061 16.141ZM22.681 18.683C18.125 23.862 16.353 32.165 17.631 41.176 15.3565 41.2743 13.1207 41.7991 11.04 42.723L10.822 42.814C10.3983 33.2737 14.8693 24.1761 22.681 18.683Z" class="MsftOfcThm_Background1_Fill_v2" stroke="none" stroke-width="1" stroke-linecap="butt" stroke-linejoin="miter" stroke-miterlimit="4" fill="#FFFFFF" fill-opacity="1"/></svg>